<svg width="40" height="40" viewBox="0 0 40 40" fill="none" xmlns="http://www.w3.org/2000/svg">
  <defs>
    <linearGradient id="g" x1="9" y1="4" x2="31" y2="35" gradientUnits="userSpaceOnUse">
      <stop stop-color="#3b82f6" /><stop offset="1" stop-color="#1d4ed8" />
    </linearGradient>
  </defs>
  <path d="M20 4 L30.5 8.2 Q31 8.4 31 9 V18.6 C31 26.1 26.2 31.7 20 35 C13.8 31.7 9 26.1 9 18.6 V9 Q9 8.4 9.5 8.2 Z" fill="url(#g)" />
  <path d="M20 11.8 L14.2 22.6 L25.8 22.6 Z" stroke="#fff" stroke-width="1.3" stroke-opacity=".65" stroke-linejoin="round" fill="none" />
  <path d="M20 18.2 L20 11.8 M20 18.2 L14.2 22.6 M20 18.2 L25.8 22.6" stroke="#fff" stroke-width="1.6" stroke-linecap="round" />
  <circle cx="20" cy="11.8" r="2" fill="#fff" />
  <circle cx="14.2" cy="22.6" r="2" fill="#fff" />
  <circle cx="25.8" cy="22.6" r="2" fill="#fff" />
  <circle cx="20" cy="18.2" r="2.4" fill="#fff" />
</svg>
